<svg xmlns="http://www.w3.org/2000/svg" viewBox="0 0 109.79 34.78"><defs><style>.cls-1{fill:#fff;}</style></defs><title>Asset 1</title><g id="Layer_2" data-name="Layer 2"><g id="Layer_1-2" data-name="Layer 1"><path class="cls-1" d="M104.62,34.78H5.17A5.19,5.19,0,0,1,0,29.61V5.17A5.19,5.19,0,0,1,5.17,0h99.45a5.19,5.19,0,0,1,5.17,5.17V29.61A5.19,5.19,0,0,1,104.62,34.78ZM5.17,2A3.17,3.17,0,0,0,2,5.17V29.61a3.17,3.17,0,0,0,3.17,3.17h99.45a3.17,3.17,0,0,0,3.17-3.17V5.17A3.17,3.17,0,0,0,104.62,2Z"/><path class="cls-1" d="M31.44,10.58l-.57,1.3h-.62l2.3-5.13h.61l2.29,5.13h-.64l-.57-1.3Zm1.39-3.16L31.69,10H34Z"/><path class="cls-1" d="M36.9,11.88,35.37,8H36l1.23,3.27L38.43,8H39l-1.52,3.86Z"/><path class="cls-1" d="M42,11.29a1.7,1.7,0,0,1-1.41.62,1.18,1.18,0,0,1-1.3-1.06.49.49,0,0,1,0-.12c0-.67.53-1.1,1.44-1.11H42V9.4c0-.57-.36-.9-1-.9a2.16,2.16,0,0,0-1.22.44l-.24-.42A2.57,2.57,0,0,1,41,8c1,0,1.48.5,1.49,1.33v2.55H42Zm0-.74v-.46H40.8c-.64,0-1,.19-1,.62s.35.7.89.7A1.24,1.24,0,0,0,42,10.55Z"/><path class="cls-1" d="M44.46,6.91a.38.38,0,0,1-.36.4h0a.39.39,0,0,1-.33-.46.4.4,0,0,1,.33-.33.38.38,0,0,1,.37.37Zm-.65,5V8h.56v3.86Z"/><path class="cls-1" d="M45.8,11.88V6.45h.57v5.43Z"/><path class="cls-1" d="M50.19,11.29a1.64,1.64,0,0,1-1.41.62,1.18,1.18,0,0,1-1.3-1.06.49.49,0,0,1,0-.12c0-.67.53-1.1,1.44-1.11h1.27V9.4c0-.57-.35-.9-1-.9A2.16,2.16,0,0,0,48,8.94l-.24-.42A2.56,2.56,0,0,1,49.26,8c1,0,1.48.5,1.48,1.33v2.55h-.56Zm0-.74v-.46H49c-.65,0-1,.19-1,.62s.35.7.89.7A1.26,1.26,0,0,0,50.19,10.55Z"/><path class="cls-1" d="M56,10a1.82,1.82,0,0,1-1.67,1.94h-.17a1.61,1.61,0,0,1-1.5-.85v.83h-.57V6.45h.57v2.4A1.6,1.6,0,0,1,54.12,8,1.83,1.83,0,0,1,56,9.75,2.09,2.09,0,0,1,56,10Zm-.58,0a1.38,1.38,0,0,0-2.76,0h0a1.38,1.38,0,0,0,2.76,0Z"/><path class="cls-1" d="M57,11.88V6.45h.57v5.43Z"/><path class="cls-1" d="M62.33,10.17H59.18a1.35,1.35,0,0,0,1.4,1.23,1.56,1.56,0,0,0,1.19-.48l.32.34a2,2,0,0,1-1.55.64,1.85,1.85,0,0,1-1.92-1.77.89.89,0,0,1,0-.23A1.84,1.84,0,0,1,60.4,8h.13C61.77,8,62.39,8.86,62.33,10.17Zm-.51-.47A1.2,1.2,0,0,0,60.6,8.5h-.07a1.3,1.3,0,0,0-1.35,1.2Z"/><path class="cls-1" d="M73.37,9.5v2.38H72.8V9.65a1,1,0,0,0-.91-1.08h-.18a1.26,1.26,0,0,0-1.3,1.22v2.09h-.57V8h.57v.85A1.53,1.53,0,0,1,71.9,8a1.35,1.35,0,0,1,1.47,1.24A1.13,1.13,0,0,1,73.37,9.5Z"/><path class="cls-1" d="M78.64,11.62a1.62,1.62,0,0,1-.87.29,1,1,0,0,1-1-1.1V8.61h-.56V8.15h.56v-1h.56v1h1.22v.47h-1.2v2.1c0,.47.18.64.51.64a1.13,1.13,0,0,0,.62-.19Z"/><path class="cls-1" d="M83.08,9.5v2.38H82.5V9.65a1,1,0,0,0-.91-1.08h-.18A1.28,1.28,0,0,0,80.1,9.82a1.09,1.09,0,0,0,0,.18v1.9h-.57V6.45h.57V8.88A1.51,1.51,0,0,1,81.61,8a1.37,1.37,0,0,1,1.47,1.26A1,1,0,0,1,83.08,9.5Z"/><path class="cls-1" d="M87.67,10.17H84.52a1.35,1.35,0,0,0,1.4,1.23,1.64,1.64,0,0,0,1.2-.48l.31.34a2,2,0,0,1-1.55.64A1.85,1.85,0,0,1,84,10.08V10a1.84,1.84,0,0,1,1.67-2h.2C87.12,8,87.73,8.86,87.67,10.17Zm-.51-.47a1.2,1.2,0,0,0-1.22-1.2h-.07a1.3,1.3,0,0,0-1.35,1.2Z"/><path class="cls-1" d="M38.58,20.92V24.2a6.33,6.33,0,0,1-3.47,1.12,4.36,4.36,0,0,1-.29-8.72h.4a5.32,5.32,0,0,1,3.43,1.25l-1.08,1.38a3.6,3.6,0,0,0-2.35-.95,2.67,2.67,0,0,0,0,5.34h0a3.82,3.82,0,0,0,1.68-.47V20.92Z"/><path class="cls-1" d="M46.72,21.94a3.26,3.26,0,0,1-3.15,3.37H43.2a3.26,3.26,0,0,1-3.52-3c0-.12,0-.25,0-.38a3.25,3.25,0,0,1,3.14-3.36h.39a3.25,3.25,0,0,1,3.51,3C46.72,21.68,46.72,21.81,46.72,21.94Zm-5.16,0a1.65,1.65,0,1,0,3.28.36,2.16,2.16,0,0,0,0-.36,1.65,1.65,0,0,0-3.28-.36A2.16,2.16,0,0,0,41.56,21.94Z"/><path class="cls-1" d="M54.45,21.94a3.26,3.26,0,0,1-3.15,3.37h-.37a3.36,3.36,0,1,1-.37-6.71,2.28,2.28,0,0,1,.37,0,3.25,3.25,0,0,1,3.51,3C54.45,21.68,54.45,21.81,54.45,21.94ZM49.3,22a1.64,1.64,0,0,0,3.27.26,1.13,1.13,0,0,0,0-.26,1.64,1.64,0,0,0-3.27-.26A1.13,1.13,0,0,0,49.3,22Z"/><path class="cls-1" d="M61.86,24.62c0,1.87-1.41,3.05-3.51,3.05a5.19,5.19,0,0,1-2.86-.86l.7-1.32a3.49,3.49,0,0,0,2,.66c1.07,0,1.76-.58,1.76-1.47v-.75a2.31,2.31,0,0,1-2,1,2.89,2.89,0,0,1-2.89-2.87,3,3,0,0,1,0-.31,2.83,2.83,0,0,1,2.48-3.14,2.13,2.13,0,0,1,.44,0,2.37,2.37,0,0,1,2,1v-.9h1.87ZM60,21.76a1.55,1.55,0,0,0-1.38-1.7h-.16a1.58,1.58,0,0,0-1.56,1.58c0,.05,0,.09,0,.13A1.55,1.55,0,1,0,60,22,1,1,0,0,0,60,21.76Z"/><path class="cls-1" d="M63.64,25.23V16.16h1.88v9.07Z"/><path class="cls-1" d="M73.46,22.52H68.74a1.68,1.68,0,0,0,1.7,1.32,2.32,2.32,0,0,0,1.66-.7l1,1a3.64,3.64,0,0,1-2.81,1.16,3.18,3.18,0,0,1-3.44-2.9,2.67,2.67,0,0,1,0-.4,3.21,3.21,0,0,1,3-3.38,2.16,2.16,0,0,1,.36,0C72.54,18.59,73.61,20.12,73.46,22.52ZM71.69,21.4A1.37,1.37,0,0,0,70.35,20h-.11a1.55,1.55,0,0,0-1.54,1.4Z"/><path class="cls-1" d="M81.31,16.67c2.18,0,3.42,1.08,3.42,3s-1.24,3.15-3.42,3.15h-1.7v2.44H77.68V16.67Zm-1.7,4.5h1.6c1.08,0,1.69-.49,1.69-1.46s-.61-1.43-1.69-1.43h-1.6Z"/><path class="cls-1" d="M86,25.23V16.16h1.88v9.07Z"/><path class="cls-1" d="M93.58,24.46a2.54,2.54,0,0,1-2.07.86,2,2,0,0,1-2.24-1.72,1.94,1.94,0,0,1,0-.34c0-1.23.89-2,2.51-2h1.81v-.12c0-.7-.47-1.1-1.37-1.1a4.28,4.28,0,0,0-2,.57l-.59-1.29a6.28,6.28,0,0,1,3-.76c1.76,0,2.78.88,2.79,2.36v4.29H93.58Zm0-1.48v-.59H92.09c-.72,0-1.08.22-1.08.75s.39.83,1,.83a1.46,1.46,0,0,0,1.56-1Z"/><path class="cls-1" d="M100.11,26a2.44,2.44,0,0,1-2.4,1.73,2.66,2.66,0,0,1-1.79-.64l.8-1.36a1.29,1.29,0,0,0,.85.36.93.93,0,0,0,.87-.59l.18-.36L95.9,18.65h1.94l1.72,4.53,1.56-4.53H103Z"/><path class="cls-1" d="M26.69,17l-4.11-2.37-3.37,3.26,3.08,3,4.4-2.54a.76.76,0,0,0,.31-1h0a.81.81,0,0,0-.29-.29Z"/><polygon class="cls-1" points="21.89 14.26 17.37 11.65 7.46 6.57 18.65 17.39 21.89 14.26"/><polygon class="cls-1" points="7.63 29.12 17.38 23.74 21.6 21.31 18.65 18.46 7.63 29.12"/><polygon class="cls-1" points="6.8 7.01 6.79 28.85 18.09 17.92 6.8 7.01"/><path class="cls-1" d="M66.92,8.52A1.48,1.48,0,1,1,65.44,10a1.48,1.48,0,0,1,1.48-1.48m0-.5a2,2,0,1,0,2,2,2,2,0,0,0-2-2Z"/></g></g></svg>